<svg width="32" height="32" viewBox="0 0 32 32" fill="none" xmlns="http://www.w3.org/2000/svg">
<path d="M25.3999 6.54658C24.1774 5.31205 22.7213 4.3332 21.1166 3.66706C19.5119 3.00092 17.7907 2.66082 16.0533 2.66658C8.77328 2.66658 2.83994 8.59991 2.83994 15.8799C2.83994 18.2132 3.45328 20.4799 4.59994 22.4799L2.73328 29.3332L9.73328 27.4932C11.6666 28.5466 13.8399 29.1066 16.0533 29.1066C23.3333 29.1066 29.2666 23.1732 29.2666 15.8932C29.2666 12.3599 27.8933 9.03991 25.3999 6.54658ZM16.0533 26.8666C14.0799 26.8666 12.1466 26.3332 10.4533 25.3332L10.0533 25.0932L5.89328 26.1866L6.99994 22.1332L6.73328 21.7199C5.63667 19.9693 5.05451 17.9456 5.05328 15.8799C5.05328 9.82658 9.98661 4.89324 16.0399 4.89324C18.9733 4.89324 21.7333 6.03991 23.7999 8.11991C24.8234 9.13839 25.6345 10.35 26.1861 11.6843C26.7377 13.0187 27.0189 14.4494 27.0133 15.8932C27.0399 21.9466 22.1066 26.8666 16.0533 26.8666ZM22.0799 18.6532C21.7466 18.4932 20.1199 17.6932 19.8266 17.5732C19.5199 17.4666 19.3066 17.4132 19.0799 17.7332C18.8533 18.0666 18.2266 18.8132 18.0399 19.0266C17.8533 19.2532 17.6533 19.2799 17.3199 19.1066C16.9866 18.9466 15.9199 18.5866 14.6666 17.4666C13.6799 16.5866 13.0266 15.5066 12.8266 15.1732C12.6399 14.8399 12.7999 14.6666 12.9733 14.4932C13.1199 14.3466 13.3066 14.1066 13.4666 13.9199C13.6266 13.7332 13.6933 13.5866 13.7999 13.3732C13.9066 13.1466 13.8533 12.9599 13.7733 12.7999C13.6933 12.6399 13.0266 11.0132 12.7599 10.3466C12.4933 9.70658 12.2133 9.78658 12.0133 9.77324H11.3733C11.1466 9.77324 10.7999 9.85324 10.4933 10.1866C10.1999 10.5199 9.34661 11.3199 9.34661 12.9466C9.34661 14.5732 10.5333 16.1466 10.6933 16.3599C10.8533 16.5866 13.0266 19.9199 16.3333 21.3466C17.1199 21.6932 17.7333 21.8932 18.2133 22.0399C18.9999 22.2932 19.7199 22.2532 20.2933 22.1732C20.9333 22.0799 22.2533 21.3732 22.5199 20.5999C22.7999 19.8266 22.7999 19.1732 22.7066 19.0266C22.6133 18.8799 22.4133 18.8132 22.0799 18.6532Z" fill="#F9FAFB"/>
</svg>
