<svg width="40" height="40" viewBox="0 0 40 40" fill="none" xmlns="http://www.w3.org/2000/svg">
<path d="M20 10C15.55 10 12.7834 12.2167 11.6667 16.6667C13.3334 14.45 15.2834 13.6167 17.5 14.1667C18.7667 14.4833 19.6834 15.4 20.6834 16.4167C22.3167 18.0833 24.1667 20 28.3334 20C32.7834 20 35.55 17.7833 36.6667 13.3333C35 15.55 33.05 16.3833 30.8334 15.8333C29.5667 15.5167 28.6667 14.6 27.65 13.5833C26.0167 11.9167 24.1667 10 20 10ZM11.6667 20C7.21671 20 4.45004 22.2167 3.33337 26.6667C5.00004 24.45 6.95004 23.6167 9.16671 24.1667C10.4334 24.4833 11.3334 25.4 12.35 26.4167C13.9834 28.0833 15.8334 30 20 30C24.45 30 27.2167 27.7833 28.3334 23.3333C26.6667 25.55 24.7167 26.3833 22.5 25.8333C21.2334 25.5167 20.3334 24.6 19.3167 23.5833C17.6834 21.9167 15.8334 20 11.6667 20Z" fill="#0056B3"/>
</svg>
