<svg width="40" height="40" viewBox="0 0 40 40" fill="none" xmlns="http://www.w3.org/2000/svg">
<path fill-rule="evenodd" clip-rule="evenodd" d="M8.30833 3.33331C6.025 3.33331 4.33667 5.33165 4.41333 7.49665C4.485 9.57998 4.39167 12.275 3.71333 14.4733C3.03 16.6766 1.88 18.0733 0 18.2533V20.2783C1.88 20.4566 3.03167 21.8533 3.71167 24.0583C4.39167 26.2566 4.485 28.9516 4.41167 31.0333C4.33667 33.2 6.025 35.1983 8.30833 35.1983H31.695C33.9783 35.1983 35.6667 33.2 35.59 31.0333C35.5183 28.9516 35.6117 26.2566 36.29 24.0583C36.9717 21.8533 38.12 20.4583 40 20.2783V18.2533C38.12 18.0733 36.9717 16.6766 36.29 14.4733C35.6117 12.2733 35.5183 9.57831 35.59 7.49665C35.6667 5.32998 33.9767 3.33331 31.695 3.33331H8.30833ZM27.1167 22.9483C27.1167 25.9316 24.8917 27.74 21.2 27.74H14.915C14.7351 27.74 14.5626 27.6685 14.4353 27.5413C14.3081 27.4141 14.2367 27.2416 14.2367 27.0616V11.4683C14.2371 11.2887 14.3088 11.1166 14.4359 10.9897C14.5631 10.8629 14.7354 10.7916 14.915 10.7916H21.165C24.2433 10.7916 26.265 12.4583 26.265 15.02C26.265 16.8166 24.905 18.425 23.1733 18.7083V18.8016C25.5317 19.06 27.1167 20.6933 27.1167 22.9483ZM20.5167 12.94H16.9333V18.0033H19.9517C22.285 18.0033 23.5717 17.0633 23.5717 15.3833C23.5717 13.81 22.465 12.94 20.5167 12.94ZM16.9333 20.0116V25.59H20.65C23.0783 25.59 24.3667 24.615 24.3667 22.7833C24.3667 20.95 23.0433 20.0116 20.4933 20.0116H16.9333Z" fill="#0056B3"/>
</svg>
