<svg width="40" height="40" viewBox="0 0 40 40" fill="none" xmlns="http://www.w3.org/2000/svg">
<path d="M20 4.16666C20 4.16666 27.5 7.56666 27.5 21.6667C27.5 25.8167 25.7667 30.95 24.8334 33.3333H15.1667C14.2334 30.95 12.5 25.8167 12.5 21.6667C12.5 7.56666 20 4.16666 20 4.16666ZM23.3334 18.3333C23.3334 16.5 21.8334 15 20 15C18.1667 15 16.6667 16.5 16.6667 18.3333C16.6667 20.1667 18.1667 21.6667 20 21.6667C21.8334 21.6667 23.3334 20.1667 23.3334 18.3333ZM12.8167 34.2C12.0167 32.15 10.2834 27.25 10.0334 22.75L8.15002 24C7.21669 24.6333 6.66669 25.6667 6.66669 26.7833V36.6667L12.8167 34.2ZM33.3334 36.6667V26.7833C33.3334 25.6667 32.7834 24.6333 31.85 24.0167L29.9667 22.7667C29.7167 27.25 27.9667 32.1667 27.1834 34.2167L33.3334 36.6667Z" fill="#F9FAFB"/>
</svg>
